<svg width="25" height="25" viewBox="0 0 25 25" fill="none" xmlns="http://www.w3.org/2000/svg">
<path d="M24.9982 12.5004C24.9982 18.8137 20.3186 24.033 14.2394 24.88C13.671 24.9588 13.0894 25 12.4991 25C11.8177 25 11.1486 24.9457 10.497 24.8406C4.54561 23.8824 0 18.7218 0 12.5004C0 5.59682 5.59662 0 12.5 0C19.4034 0 25 5.59682 25 12.5004H24.9982Z" fill="#B4FF05"/>
<path d="M14.2395 10.0378V12.7608H17.6079L17.0746 16.429H14.2395V24.8803C13.671 24.9591 13.0895 25.0003 12.4992 25.0003C11.8178 25.0003 11.1486 24.946 10.497 24.8409V16.429H7.39038V12.7608H10.497V9.42903C10.497 7.36197 12.1725 5.68555 14.2403 5.68555V5.6873C14.2465 5.6873 14.2517 5.68555 14.2578 5.68555H17.6088V8.85796H15.4192C14.7685 8.85796 14.2403 9.38611 14.2403 10.0369L14.2395 10.0378Z" fill="black"/>
</svg>
