<svg width="25" height="25" viewBox="0 0 25 25" fill="none" xmlns="http://www.w3.org/2000/svg">
<path d="M12.5285 0H12.4715C5.5837 0 0 5.5837 0 12.4715V12.5285C0 19.4163 5.5837 25 12.4715 25H12.5285C19.4163 25 25 19.4163 25 12.5285V12.4715C25 5.5837 19.4163 0 12.5285 0Z" fill="#B4FF05"/>
<path d="M16.3683 5.08594H8.63257C6.49544 5.08594 4.75684 6.82454 4.75684 8.96167V16.0387C4.75684 18.1758 6.49544 19.9144 8.63257 19.9144H16.3683C18.5054 19.9144 20.244 18.1758 20.244 16.0387V8.96167C20.244 6.82454 18.5054 5.08594 16.3683 5.08594ZM6.12407 8.96167C6.12407 7.57867 7.24957 6.45317 8.63257 6.45317H16.3683C17.7513 6.45317 18.8768 7.57867 18.8768 8.96167V16.0387C18.8768 17.4217 17.7513 18.5472 16.3683 18.5472H8.63257C7.24957 18.5472 6.12407 17.4217 6.12407 16.0387V8.96167Z" fill="black"/>
<path d="M12.5004 16.1047C14.4878 16.1047 16.1055 14.4878 16.1055 12.4996C16.1055 10.5114 14.4886 8.89453 12.5004 8.89453C10.5122 8.89453 8.89532 10.5114 8.89532 12.4996C8.89532 14.4878 10.5122 16.1047 12.5004 16.1047ZM12.5004 10.2626C13.7345 10.2626 14.7383 11.2664 14.7383 12.5005C14.7383 13.7346 13.7345 14.7383 12.5004 14.7383C11.2663 14.7383 10.2626 13.7346 10.2626 12.5005C10.2626 11.2664 11.2663 10.2626 12.5004 10.2626Z" fill="black"/>
<path d="M16.4392 9.47687C16.9744 9.47687 17.4106 9.04156 17.4106 8.50552C17.4106 7.96949 16.9753 7.53418 16.4392 7.53418C15.9032 7.53418 15.4679 7.96949 15.4679 8.50552C15.4679 9.04156 15.9032 9.47687 16.4392 9.47687Z" fill="black"/>
</svg>
