<svg width="71" height="19" viewBox="0 0 71 19" fill="none" xmlns="http://www.w3.org/2000/svg">
<path d="M-0.0079999 18V1.2H3.88V14.832H12.304V18H-0.0079999ZM22.3551 18.288C21.0271 18.288 19.7951 18.072 18.6591 17.64C17.5391 17.208 16.5631 16.6 15.7311 15.816C14.9151 15.032 14.2751 14.112 13.8111 13.056C13.3631 12 13.1391 10.848 13.1391 9.6C13.1391 8.352 13.3631 7.2 13.8111 6.144C14.2751 5.088 14.9231 4.168 15.7551 3.384C16.5871 2.6 17.5631 1.992 18.6831 1.56C19.8031 1.128 21.0191 0.912 22.3311 0.912C23.6591 0.912 24.8751 1.128 25.9791 1.56C27.0991 1.992 28.0671 2.6 28.8831 3.384C29.7151 4.168 30.3631 5.088 30.8271 6.144C31.2911 7.184 31.5231 8.336 31.5231 9.6C31.5231 10.848 31.2911 12.008 30.8271 13.08C30.3631 14.136 29.7151 15.056 28.8831 15.84C28.0671 16.608 27.0991 17.208 25.9791 17.64C24.8751 18.072 23.6671 18.288 22.3551 18.288ZM22.3311 14.976C23.0831 14.976 23.7711 14.848 24.3951 14.592C25.0351 14.336 25.5951 13.968 26.0751 13.488C26.5551 13.008 26.9231 12.44 27.1791 11.784C27.4511 11.128 27.5871 10.4 27.5871 9.6C27.5871 8.8 27.4511 8.072 27.1791 7.416C26.9231 6.76 26.5551 6.192 26.0751 5.712C25.6111 5.232 25.0591 4.864 24.4191 4.608C23.7791 4.352 23.0831 4.224 22.3311 4.224C21.5791 4.224 20.8831 4.352 20.2431 4.608C19.6191 4.864 19.0671 5.232 18.5871 5.712C18.1071 6.192 17.7311 6.76 17.4591 7.416C17.2031 8.072 17.0751 8.8 17.0751 9.6C17.0751 10.384 17.2031 11.112 17.4591 11.784C17.7311 12.44 18.0991 13.008 18.5631 13.488C19.0431 13.968 19.6031 14.336 20.2431 14.592C20.8831 14.848 21.5791 14.976 22.3311 14.976ZM42.5571 18.288C41.2291 18.288 40.0051 18.08 38.8851 17.664C37.7811 17.232 36.8131 16.624 35.9811 15.84C35.1651 15.056 34.5251 14.136 34.0611 13.08C33.6131 12.024 33.3891 10.864 33.3891 9.6C33.3891 8.336 33.6131 7.176 34.0611 6.12C34.5251 5.064 35.1731 4.144 36.0051 3.36C36.8371 2.576 37.8131 1.976 38.9331 1.56C40.0531 1.128 41.2851 0.912 42.6291 0.912C44.1171 0.912 45.4531 1.16 46.6371 1.656C47.8371 2.152 48.8451 2.872 49.6611 3.816L47.1651 6.12C46.5571 5.48 45.8931 5.008 45.1731 4.704C44.4531 4.384 43.6691 4.224 42.8211 4.224C42.0051 4.224 41.2611 4.352 40.5891 4.608C39.9171 4.864 39.3331 5.232 38.8371 5.712C38.3571 6.192 37.9811 6.76 37.7091 7.416C37.4531 8.072 37.3251 8.8 37.3251 9.6C37.3251 10.384 37.4531 11.104 37.7091 11.76C37.9811 12.416 38.3571 12.992 38.8371 13.488C39.3331 13.968 39.9091 14.336 40.5651 14.592C41.2371 14.848 41.9731 14.976 42.7731 14.976C43.5411 14.976 44.2851 14.856 45.0051 14.616C45.7411 14.36 46.4531 13.936 47.1411 13.344L49.3491 16.152C48.4371 16.84 47.3731 17.368 46.1571 17.736C44.9571 18.104 43.7571 18.288 42.5571 18.288ZM45.7971 15.648V9.336H49.3491V16.152L45.7971 15.648ZM61.1208 18.288C59.7928 18.288 58.5608 18.072 57.4248 17.64C56.3048 17.208 55.3288 16.6 54.4967 15.816C53.6808 15.032 53.0408 14.112 52.5768 13.056C52.1288 12 51.9048 10.848 51.9048 9.6C51.9048 8.352 52.1288 7.2 52.5768 6.144C53.0408 5.088 53.6888 4.168 54.5208 3.384C55.3528 2.6 56.3288 1.992 57.4488 1.56C58.5688 1.128 59.7848 0.912 61.0968 0.912C62.4248 0.912 63.6407 1.128 64.7448 1.56C65.8648 1.992 66.8328 2.6 67.6488 3.384C68.4808 4.168 69.1288 5.088 69.5928 6.144C70.0568 7.184 70.2888 8.336 70.2888 9.6C70.2888 10.848 70.0568 12.008 69.5928 13.08C69.1288 14.136 68.4808 15.056 67.6488 15.84C66.8328 16.608 65.8648 17.208 64.7448 17.64C63.6407 18.072 62.4327 18.288 61.1208 18.288ZM61.0968 14.976C61.8488 14.976 62.5368 14.848 63.1608 14.592C63.8008 14.336 64.3608 13.968 64.8408 13.488C65.3208 13.008 65.6888 12.44 65.9448 11.784C66.2168 11.128 66.3528 10.4 66.3528 9.6C66.3528 8.8 66.2168 8.072 65.9448 7.416C65.6888 6.76 65.3208 6.192 64.8408 5.712C64.3768 5.232 63.8248 4.864 63.1848 4.608C62.5448 4.352 61.8488 4.224 61.0968 4.224C60.3448 4.224 59.6488 4.352 59.0088 4.608C58.3848 4.864 57.8328 5.232 57.3528 5.712C56.8728 6.192 56.4968 6.76 56.2248 7.416C55.9688 8.072 55.8408 8.8 55.8408 9.6C55.8408 10.384 55.9688 11.112 56.2248 11.784C56.4968 12.44 56.8648 13.008 57.3288 13.488C57.8088 13.968 58.3688 14.336 59.0088 14.592C59.6488 14.848 60.3448 14.976 61.0968 14.976Z" fill="white"/>
</svg>
