<svg width="25" height="25" viewBox="0 0 25 25" fill="none" xmlns="http://www.w3.org/2000/svg">
<path d="M24.9982 12.5004C24.9982 18.8137 20.3186 24.033 14.2394 24.88C13.671 24.9588 13.0894 25 12.4991 25C11.8177 25 11.1486 24.9457 10.497 24.8406C4.54561 23.8824 0 18.7218 0 12.5004C0 5.59682 5.59662 0 12.5 0C19.4034 0 25 5.59682 25 12.5004H24.9982Z" fill="#B4FF05"/>
<path d="M5.06936 5.51318L10.8341 13.2209L5.03345 19.4877H6.33933L11.4183 14.0013L15.5216 19.4877H19.9648L13.8759 11.3465L19.2755 5.51318H17.9696L13.2926 10.5661L9.51338 5.51318H5.07023H5.06936ZM6.9892 6.47489H9.02991L18.0432 18.526H16.0025L6.9892 6.47489Z" fill="black"/>
</svg>
