<svg width="606" height="63" viewBox="0 0 606 63" fill="none" xmlns="http://www.w3.org/2000/svg">
<path d="M112.805 58.727V4.19412H123.838L148.375 42.6788H142.529L166.653 4.19412H177.604L177.769 58.727H165.254L165.171 22.3458H167.477L148.21 52.9621H142.199L122.521 22.3458H125.32V58.727H112.805Z" fill="white"/>
<path d="M219.437 59.6619C214.882 59.6619 210.655 58.9607 206.758 57.5585C202.915 56.1562 199.567 54.1826 196.713 51.6377C193.913 49.0929 191.717 46.1066 190.126 42.6788C188.589 39.251 187.82 35.5116 187.82 31.4606C187.82 27.4096 188.589 23.6702 190.126 20.2424C191.717 16.8146 193.941 13.8283 196.795 11.2834C199.649 8.73853 202.998 6.76496 206.84 5.36269C210.682 3.96041 214.854 3.25928 219.355 3.25928C223.911 3.25928 228.083 3.96041 231.87 5.36269C235.713 6.76496 239.034 8.73853 241.833 11.2834C244.687 13.8283 246.91 16.8146 248.502 20.2424C250.094 23.6182 250.89 27.3576 250.89 31.4606C250.89 35.5116 250.094 39.277 248.502 42.7567C246.91 46.1845 244.687 49.1708 241.833 51.7157C239.034 54.2086 235.713 56.1562 231.87 57.5585C228.083 58.9607 223.939 59.6619 219.437 59.6619ZM219.355 48.9111C221.935 48.9111 224.295 48.4956 226.436 47.6646C228.632 46.8337 230.553 45.6391 232.2 44.081C233.846 42.523 235.109 40.6792 235.987 38.5499C236.92 36.4205 237.387 34.0574 237.387 31.4606C237.387 28.8638 236.92 26.5007 235.987 24.3713C235.109 22.2419 233.846 20.3982 232.2 18.8401C230.608 17.282 228.714 16.0875 226.518 15.2565C224.323 14.4255 221.935 14.01 219.355 14.01C216.775 14.01 214.387 14.4255 212.192 15.2565C210.051 16.0875 208.157 17.282 206.511 18.8401C204.864 20.3982 203.574 22.2419 202.641 24.3713C201.763 26.5007 201.323 28.8638 201.323 31.4606C201.323 34.0054 201.763 36.3685 202.641 38.5499C203.574 40.6792 204.836 42.523 206.428 44.081C208.075 45.6391 209.996 46.8337 212.192 47.6646C214.387 48.4956 216.775 48.9111 219.355 48.9111Z" fill="white"/>
<path d="M260.915 58.727V4.19412H287.098C293.355 4.19412 298.872 5.33672 303.647 7.62191C308.423 9.85516 312.155 12.9973 314.845 17.0483C317.535 21.0993 318.879 25.9034 318.879 31.4606C318.879 36.9658 317.535 41.7699 314.845 45.8728C312.155 49.9239 308.423 53.092 303.647 55.3771C298.872 57.6104 293.355 58.727 287.098 58.727H260.915ZM274.253 48.3658H286.439C290.281 48.3658 293.602 47.6906 296.402 46.3403C299.256 44.938 301.452 42.9644 302.989 40.4196C304.58 37.8747 305.376 34.8884 305.376 31.4606C305.376 27.9809 304.58 24.9945 302.989 22.5016C301.452 19.9567 299.256 18.0091 296.402 16.6588C293.602 15.2565 290.281 14.5554 286.439 14.5554H274.253V48.3658Z" fill="white"/>
<path d="M341.207 26.1631H368.954V35.979H341.207V26.1631ZM342.195 48.5995H373.565V58.727H328.939V4.19412H372.495V14.3217H342.195V48.5995Z" fill="white"/>
<path d="M384.178 58.727V4.19412H397.517V48.4437H426.417V58.727H384.178Z" fill="white"/>
<path d="M433.87 58.727V4.19412H447.208V48.4437H476.108V58.727H433.87Z" fill="white"/>
<path d="M483.561 58.727V4.19412H496.899V58.727H483.561Z" fill="white"/>
<path d="M529.515 59.6619C524.904 59.6619 520.485 59.0906 516.259 57.948C512.032 56.7535 508.629 55.2213 506.049 53.3516L510.578 43.8473C513.048 45.5093 515.957 46.8856 519.305 47.9763C522.709 49.015 526.139 49.5343 529.597 49.5343C532.232 49.5343 534.345 49.3006 535.937 48.8332C537.584 48.3138 538.792 47.6127 539.56 46.7298C540.329 45.8469 540.713 44.8341 540.713 43.6915C540.713 42.2373 540.109 41.0947 538.901 40.2637C537.694 39.3808 536.102 38.6797 534.126 38.1603C532.15 37.589 529.954 37.0697 527.539 36.6022C525.179 36.0829 522.791 35.4597 520.376 34.7325C518.015 34.0054 515.847 33.0706 513.871 31.928C511.895 30.7854 510.276 29.2793 509.013 27.4096C507.806 25.5399 507.202 23.1508 507.202 20.2424C507.202 17.1262 508.08 14.2957 509.837 11.7508C511.648 9.15402 514.338 7.10255 517.906 5.5964C521.528 4.03832 526.057 3.25928 531.491 3.25928C535.114 3.25928 538.682 3.67477 542.195 4.50574C545.708 5.28478 548.809 6.47931 551.499 8.08933L547.382 17.6715C544.692 16.2173 542.003 15.1526 539.313 14.4775C536.623 13.7504 533.989 13.3868 531.409 13.3868C528.829 13.3868 526.716 13.6725 525.069 14.2438C523.422 14.8151 522.242 15.5681 521.528 16.503C520.815 17.3859 520.458 18.4246 520.458 19.6191C520.458 21.0214 521.062 22.164 522.269 23.0469C523.477 23.8779 525.069 24.5531 527.045 25.0724C529.021 25.5918 531.189 26.1112 533.55 26.6305C535.965 27.1499 538.353 27.7471 540.713 28.4223C543.128 29.0975 545.324 30.0064 547.3 31.149C549.276 32.2916 550.868 33.7977 552.075 35.6674C553.338 37.5371 553.969 39.9002 553.969 42.7567C553.969 45.8209 553.063 48.6255 551.252 51.1703C549.441 53.7152 546.723 55.7667 543.101 57.3247C539.533 58.8828 535.004 59.6619 529.515 59.6619Z" fill="white"/>
<path d="M574.218 58.727V14.4775H555.775V4.19412H606V14.4775H587.557V58.727H574.218Z" fill="white"/>
<path d="M84.1719 1.026C83.4667 0.810211 82.7452 0.700684 82.027 0.700684C79.6738 0.700684 77.5504 1.84397 76.2011 3.83784L76.1871 3.85835L76.174 3.87932L63.466 24.3419L59.0583 31.4393L44.9083 54.2262C44.8803 54.2714 44.8057 54.3912 44.6123 54.3912C44.418 54.3912 44.3462 54.2756 44.3154 54.2262L30.1439 31.4249L25.7344 24.3298L13.0739 3.95949L13.0105 3.86115C11.6458 1.8449 9.5224 0.701615 7.16871 0.701149C6.45096 0.701149 5.72993 0.810211 5.02569 1.026C1.97243 1.96142 0 4.62924 0 7.82279V55.4972C0 58.6903 1.97243 61.3581 5.02523 62.2936C5.73087 62.5093 6.45189 62.6189 7.16871 62.6189C9.52146 62.6189 11.6454 61.4756 12.9951 59.4817L13.0114 59.4575L13.0268 59.4323L24.2658 41.0144L19.8562 33.9207L7.46234 54.2309V9.06861L37.9768 58.1651C39.4123 60.4749 41.8928 61.854 44.6114 61.854C45.2919 61.8536 45.9569 61.7673 46.5945 61.6019C47.8697 61.271 49.0344 60.6231 49.988 59.7148C50.4648 59.2603 50.889 58.7411 51.2474 58.1636L81.7325 9.06861V54.2328L69.3917 34.0004L64.9817 41.0946L76.106 59.3363L76.1824 59.4561C77.5494 61.476 79.6729 62.6193 82.0261 62.6193C82.7434 62.6193 83.4644 62.5098 84.1696 62.2945C87.2228 61.3577 89.1948 58.6898 89.1948 55.4977V7.82232C89.1957 4.63017 87.2238 1.96235 84.1719 1.026Z" fill="url(#paint0_linear_238_872)"/>
<path d="M78.5529 2.53174C77.8934 2.53174 77.2842 2.73961 76.7813 3.0901C76.5758 3.32453 76.3805 3.57249 76.2006 3.83768L76.1866 3.85819L76.1736 3.87917L63.4656 24.3418L59.0579 31.4392L44.9078 54.2261C44.8799 54.2713 44.8053 54.3911 44.6119 54.3911C44.4175 54.3911 44.3457 54.2755 44.315 54.2261L30.1435 31.4247L25.7339 24.3296L13.0734 3.95933L13.0101 3.86099C12.866 3.64799 12.709 3.45037 12.5486 3.25695C12.0099 2.80719 11.3205 2.53174 10.5636 2.53174C8.84892 2.53174 7.45862 3.92204 7.45862 5.63674L7.46281 9.07265L37.9759 58.1649C39.4114 60.4748 41.8918 61.8539 44.6105 61.8539C45.2909 61.8534 45.956 61.7672 46.5936 61.6017C47.8688 61.2708 49.0335 60.623 49.9871 59.7146C50.4639 59.2602 50.888 58.741 51.2465 58.1635L81.732 9.06659L81.6556 5.6372C81.6579 3.92204 80.2676 2.53174 78.5529 2.53174Z" fill="url(#paint1_linear_238_872)"/>
<path d="M81.6579 57.7204L81.5973 54.0091L69.3927 33.9995L64.9827 41.0936L76.107 59.3354L76.1834 59.4552C76.4001 59.7754 76.6416 60.0648 76.8942 60.3398C77.3747 60.6446 77.9414 60.825 78.5525 60.825C80.2676 60.8254 81.6579 59.4351 81.6579 57.7204Z" fill="url(#paint2_linear_238_872)"/>
<path d="M10.5651 60.8256C11.2908 60.8256 11.9535 60.5707 12.482 60.153C12.6629 59.941 12.8358 59.7182 12.9961 59.4819L13.0124 59.4577L13.0278 59.4325L24.2668 41.0146L19.8572 33.9209L7.54724 54.0936L7.46008 57.7206C7.46008 59.4353 8.84992 60.8256 10.5651 60.8256Z" fill="url(#paint3_linear_238_872)"/>
<path d="M59.0582 31.4403L59.0568 31.4385L58.8788 31.7293L59.0582 31.4403Z" fill="url(#paint4_linear_238_872)"/>
<path d="M81.6578 5.63674C81.6578 3.92204 80.2675 2.53174 78.5528 2.53174C77.8933 2.53174 77.2842 2.73961 76.7813 3.0901C76.5757 3.32453 76.3804 3.57249 76.2005 3.83768L76.1866 3.85819L76.1735 3.87917L44.9082 54.2261C44.8802 54.2713 44.8057 54.3911 44.6123 54.3911C44.4734 54.3911 44.3983 54.3319 44.355 54.2801L45.1781 55.779C47.0247 58.9968 50.6074 59.0514 51.8514 57.0188L52.6264 55.9426L81.7333 9.06659L81.6578 5.63674Z" fill="url(#paint5_linear_238_872)"/>
<path d="M37.3714 5.46037L35.8702 7.71944L27.1835 21.8439L31.6475 29.0149L44.2978 8.26475C44.3281 8.21488 44.3998 8.09789 44.5951 8.09789C44.7914 8.09789 44.8655 8.21954 44.8934 8.26521L44.0442 6.70014C42.1981 3.48188 38.6154 3.42782 37.3714 5.46037Z" fill="url(#paint6_linear_238_872)"/>
<path d="M61.928 21.8147L51.2604 4.37367C49.8296 2.03304 47.3379 0.635742 44.5946 0.635742C41.8513 0.635742 39.3601 2.03304 37.9297 4.37367L35.8701 7.7201L37.3714 5.46103C38.6153 3.42847 42.1985 3.48254 44.0446 6.70079L44.8039 8.11439L45.1772 8.74453L46.6439 11.136L57.5133 28.941L61.928 21.8147Z" fill="url(#paint7_linear_238_872)"/>
<defs>
<linearGradient id="paint0_linear_238_872" x1="44.5983" y1="13.0303" x2="44.5983" y2="81.1185" gradientUnits="userSpaceOnUse">
<stop stop-color="white"/>
<stop offset="1" stop-color="#B4FF05"/>
</linearGradient>
<linearGradient id="paint1_linear_238_872" x1="44.597" y1="-9.12636" x2="44.597" y2="60.192" gradientUnits="userSpaceOnUse">
<stop stop-color="#B4FF05"/>
<stop offset="1" stop-color="white"/>
</linearGradient>
<linearGradient id="paint2_linear_238_872" x1="73.3203" y1="13.0303" x2="73.3203" y2="81.1185" gradientUnits="userSpaceOnUse">
<stop stop-color="#B4FF05"/>
<stop offset="1" stop-color="white"/>
</linearGradient>
<linearGradient id="paint3_linear_238_872" x1="15.8634" y1="33.9209" x2="15.8634" y2="60.8256" gradientUnits="userSpaceOnUse">
<stop stop-color="#B4FF05"/>
<stop offset="1" stop-color="white"/>
</linearGradient>
<linearGradient id="paint4_linear_238_872" x1="58.9685" y1="31.4552" x2="58.9685" y2="31.8952" gradientUnits="userSpaceOnUse">
<stop offset="1.00136e-07" stop-color="white"/>
<stop offset="1" stop-color="#B4FF05"/>
</linearGradient>
<linearGradient id="paint5_linear_238_872" x1="63.0447" y1="5.75013" x2="63.0447" y2="90.2641" gradientUnits="userSpaceOnUse">
<stop offset="1.00136e-07" stop-color="white"/>
<stop offset="1" stop-color="#B4FF05"/>
</linearGradient>
<linearGradient id="paint6_linear_238_872" x1="36.0385" y1="9.86814" x2="36.0385" y2="61.8923" gradientUnits="userSpaceOnUse">
<stop stop-color="#B4FF05"/>
<stop offset="1" stop-color="white"/>
</linearGradient>
<linearGradient id="paint7_linear_238_872" x1="48.899" y1="-2.22923" x2="48.899" y2="50.1883" gradientUnits="userSpaceOnUse">
<stop stop-color="white"/>
<stop offset="1" stop-color="#B4FF05"/>
</linearGradient>
</defs>
</svg>
