<svg width="607" height="62" viewBox="0 0 607 62" fill="none" xmlns="http://www.w3.org/2000/svg">
<path d="M112.834 58.1064V3.5596H123.87L148.412 42.054H142.565L166.696 3.5596H177.649L177.814 58.1064H165.296L165.213 21.7159H167.519L148.248 52.34H142.236L122.552 21.7159H125.352V58.1064H112.834Z" fill="#191919"/>
<path d="M219.493 59.0415C214.936 59.0415 210.709 58.3401 206.81 56.9375C202.967 55.5349 199.618 53.5608 196.763 51.0153C193.963 48.4698 191.766 45.4827 190.174 42.054C188.637 38.6254 187.868 34.885 187.868 30.833C187.868 26.7809 188.637 23.0406 190.174 19.6119C191.766 16.1833 193.99 13.1962 196.845 10.6507C199.7 8.10516 203.049 6.13109 206.893 4.72845C210.736 3.32583 214.909 2.62451 219.411 2.62451C223.968 2.62451 228.141 3.32583 231.929 4.72845C235.773 6.13109 239.094 8.10516 241.895 10.6507C244.75 13.1962 246.973 16.1833 248.566 19.6119C250.158 22.9886 250.954 26.729 250.954 30.833C250.954 34.885 250.158 38.6514 248.566 42.132C246.973 45.5606 244.75 48.5477 241.895 51.0932C239.094 53.5868 235.773 55.5349 231.929 56.9375C228.141 58.3401 223.996 59.0415 219.493 59.0415ZM219.411 48.2879C221.992 48.2879 224.352 47.8724 226.494 47.0412C228.69 46.21 230.612 45.0151 232.259 43.4567C233.906 41.8982 235.169 40.054 236.047 37.9241C236.981 35.7941 237.447 33.4304 237.447 30.833C237.447 28.2355 236.981 25.8718 236.047 23.7419C235.169 21.612 233.906 19.7678 232.259 18.2093C230.667 16.6508 228.772 15.456 226.576 14.6248C224.38 13.7936 221.992 13.378 219.411 13.378C216.831 13.378 214.442 13.7936 212.246 14.6248C210.105 15.456 208.21 16.6508 206.563 18.2093C204.916 19.7678 203.626 21.612 202.692 23.7419C201.814 25.8718 201.375 28.2355 201.375 30.833C201.375 33.3785 201.814 35.7422 202.692 37.9241C203.626 40.054 204.889 41.8982 206.481 43.4567C208.128 45.0151 210.05 46.21 212.246 47.0412C214.442 47.8724 216.831 48.2879 219.411 48.2879Z" fill="#191919"/>
<path d="M260.981 58.1064V3.5596H287.171C293.43 3.5596 298.948 4.70248 303.725 6.98825C308.501 9.22207 312.235 12.365 314.925 16.4171C317.616 20.4691 318.961 25.2744 318.961 30.833C318.961 36.3396 317.616 41.1449 314.925 45.2489C312.235 49.301 308.501 52.4699 303.725 54.7556C298.948 56.9895 293.43 58.1064 287.171 58.1064H260.981ZM274.323 47.7425H286.512C290.355 47.7425 293.677 47.0671 296.477 45.7165C299.332 44.3138 301.528 42.3398 303.066 39.7942C304.658 37.2487 305.454 34.2616 305.454 30.833C305.454 27.3524 304.658 24.3653 303.066 21.8717C301.528 19.3262 299.332 17.3781 296.477 16.0274C293.677 14.6248 290.355 13.9235 286.512 13.9235H274.323V47.7425Z" fill="#191919"/>
<path d="M341.294 25.5342H369.048V35.3526H341.294V25.5342ZM342.282 47.9763H373.66V58.1064H329.022V3.5596H372.59V13.6897H342.282V47.9763Z" fill="#191919"/>
<path d="M384.276 58.1064V3.5596H397.618V47.8204H426.525V58.1064H384.276Z" fill="#191919"/>
<path d="M433.98 58.1064V3.5596H447.322V47.8204H476.229V58.1064H433.98Z" fill="#191919"/>
<path d="M483.684 58.1064V3.5596H497.026V58.1064H483.684Z" fill="#191919"/>
<path d="M529.65 59.0415C525.038 59.0415 520.618 58.47 516.39 57.3271C512.163 56.1323 508.759 54.5998 506.178 52.7296L510.708 43.2229C513.178 44.8853 516.088 46.2619 519.438 47.3529C522.842 48.3918 526.273 48.9113 529.732 48.9113C532.368 48.9113 534.482 48.6776 536.074 48.21C537.721 47.6905 538.929 46.9892 539.697 46.1061C540.466 45.2229 540.851 44.2099 540.851 43.067C540.851 41.6125 540.247 40.4696 539.039 39.6384C537.831 38.7553 536.238 38.0539 534.262 37.5344C532.285 36.963 530.089 36.4435 527.673 35.976C525.312 35.4565 522.924 34.8331 520.508 34.1058C518.147 33.3785 515.979 32.4434 514.002 31.3005C512.025 30.1576 510.406 28.6511 509.143 26.7809C507.935 24.9108 507.331 22.5211 507.331 19.6119C507.331 16.495 508.209 13.6637 509.966 11.1182C511.778 8.52075 514.469 6.46876 518.037 4.96223C521.661 3.40375 526.191 2.62451 531.626 2.62451C535.25 2.62451 538.819 3.04011 542.333 3.87129C545.847 4.65053 548.949 5.84537 551.639 7.4558L547.521 17.0404C544.831 15.5859 542.141 14.5209 539.45 13.8456C536.76 13.1183 534.125 12.7546 531.544 12.7546C528.964 12.7546 526.85 13.0403 525.203 13.6118C523.555 14.1832 522.375 14.9365 521.661 15.8716C520.947 16.7547 520.591 17.7937 520.591 18.9885C520.591 20.3912 521.194 21.5341 522.402 22.4172C523.61 23.2484 525.203 23.9237 527.179 24.4432C529.156 24.9627 531.324 25.4822 533.685 26.0017C536.101 26.5212 538.49 27.1186 540.851 27.7939C543.266 28.4693 545.463 29.3784 547.439 30.5213C549.416 31.6642 551.008 33.1707 552.216 35.0409C553.479 36.9111 554.11 39.2747 554.11 42.132C554.11 45.197 553.204 48.0022 551.392 50.5477C549.58 53.0933 546.863 55.1453 543.239 56.7037C539.67 58.2622 535.14 59.0415 529.65 59.0415Z" fill="#191919"/>
<path d="M574.364 58.1064V13.8456H555.916V3.5596H606.154V13.8456H587.706V58.1064H574.364Z" fill="#191919"/>
<path d="M84.1933 0.390344C83.488 0.174496 82.7663 0.0649414 82.0479 0.0649414C79.6941 0.0649414 77.5701 1.20852 76.2205 3.2029L76.2065 3.22341L76.1934 3.24439L63.4822 23.7122L59.0734 30.8114L44.9197 53.6041C44.8917 53.6493 44.8171 53.7691 44.6237 53.7691C44.4293 53.7691 44.3575 53.6535 44.3267 53.6041L30.1516 30.7969L25.7409 23.7001L13.0772 3.32458L13.0138 3.22621C11.6488 1.20945 9.52482 0.0658735 7.17054 0.0654073C6.4526 0.0654073 5.73139 0.174496 5.02697 0.390344C1.97293 1.326 0 3.9945 0 7.18886V54.8754C0 58.0693 1.97293 60.7378 5.02651 61.6735C5.73233 61.8893 6.45353 61.9989 7.17054 61.9989C9.52388 61.9989 11.6483 60.8553 12.9984 58.8609L13.0147 58.8367L13.0301 58.8115L24.2719 40.3889L19.8613 33.2934L7.46424 53.6088V8.43499L37.9865 57.5439C39.4223 59.8544 41.9034 61.2339 44.6227 61.2339C45.3034 61.2334 45.9686 61.1471 46.6064 60.9816C47.8819 60.6506 49.0469 60.0026 50.0008 59.094C50.4777 58.6395 50.9019 58.1201 51.2604 57.5425L81.7533 8.43499V53.6106L69.4094 33.3731L64.9982 40.4691L76.1254 58.7155L76.2018 58.8353C77.5692 60.8558 79.6931 61.9993 82.047 61.9993C82.7644 61.9993 83.4856 61.8898 84.191 61.6744C87.245 60.7373 89.2175 58.0689 89.2175 54.8759V7.18839C89.2184 3.99543 87.246 1.32693 84.1933 0.390344Z" fill="url(#paint0_linear_238_820)"/>
<path d="M78.5732 1.89795C77.9135 1.89795 77.3042 2.10587 76.8012 2.45645C76.5956 2.69095 76.4002 2.93896 76.2203 3.20423L76.2063 3.22474L76.1933 3.24572L63.482 23.7135L59.0732 30.8127L44.9195 53.6054C44.8916 53.6507 44.817 53.7705 44.6235 53.7705C44.4291 53.7705 44.3573 53.6549 44.3265 53.6054L30.1514 30.7983L25.7408 23.7014L13.0771 3.3259L13.0137 3.22754C12.8696 3.01449 12.7125 2.81682 12.5521 2.62335C12.0132 2.17347 11.3237 1.89795 10.5666 1.89795C8.85147 1.89795 7.46082 3.28861 7.46082 5.00374L7.46501 8.44052L37.9858 57.5453C39.4217 59.8557 41.9028 61.2352 44.6221 61.2352C45.3028 61.2347 45.968 61.1485 46.6058 60.983C47.8813 60.652 49.0463 60.004 50.0001 59.0953C50.477 58.6408 50.9013 58.1215 51.2598 57.5439L81.7531 8.43446L81.6766 5.0042C81.679 3.2886 80.2883 1.89795 78.5732 1.89795Z" fill="url(#paint1_linear_238_820)"/>
<path d="M81.6789 57.0995L81.6183 53.3872L69.4105 33.3726L64.9994 40.4685L76.1265 58.7149L76.203 58.8347C76.4198 59.155 76.6612 59.4445 76.9139 59.7195C77.3946 60.0244 77.9615 60.2048 78.5726 60.2048C80.2882 60.2053 81.6789 58.8146 81.6789 57.0995Z" fill="url(#paint2_linear_238_820)"/>
<path d="M10.5681 60.2055C11.2939 60.2055 11.9569 59.9505 12.4855 59.5328C12.6664 59.3206 12.8394 59.0978 12.9997 58.8614L13.0161 58.8372L13.0314 58.812L24.2732 40.3894L19.8626 33.2939L7.54946 53.4718L7.46228 57.0997C7.46228 58.8148 8.85247 60.2055 10.5681 60.2055Z" fill="url(#paint3_linear_238_820)"/>
<path d="M59.0742 30.8119L59.0728 30.8101L58.8938 31.1024L59.0742 30.8119Z" fill="url(#paint4_linear_238_820)"/>
<path d="M81.6786 5.00374C81.6786 3.28861 80.2879 1.89795 78.5728 1.89795C77.9131 1.89795 77.3038 2.10587 76.8008 2.45645C76.5952 2.69095 76.3998 2.93896 76.2199 3.20423L76.2059 3.22474L76.1928 3.24572L44.9196 53.6054C44.8916 53.6507 44.817 53.7705 44.6236 53.7705C44.4846 53.7705 44.4096 53.7113 44.3662 53.6595L45.1895 55.1588C47.0366 58.3774 50.6202 58.432 51.8645 56.3989L52.6398 55.3224L81.7541 8.43446L81.6786 5.00374Z" fill="url(#paint5_linear_238_820)"/>
<path d="M37.3812 4.82693L35.8796 7.08658L27.1907 21.2146L31.6559 28.3875L44.3093 7.63202C44.3396 7.58214 44.4114 7.46513 44.6068 7.46513C44.803 7.46513 44.8772 7.5868 44.9051 7.63249L44.0557 6.06701C42.2091 2.84794 38.6255 2.79386 37.3812 4.82693Z" fill="url(#paint6_linear_238_820)"/>
<path d="M61.9441 21.1843L51.2739 3.73888C49.8426 1.39765 47.3504 0 44.6063 0C41.8623 0 39.3705 1.39765 37.9398 3.73888L35.8796 7.08616L37.3813 4.82651C38.6255 2.79344 42.2096 2.84752 44.0562 6.06659L44.8157 7.48055L45.1891 8.11085L46.6562 10.5029L57.5283 28.3125L61.9441 21.1843Z" fill="url(#paint7_linear_238_820)"/>
<defs>
<linearGradient id="paint0_linear_238_820" x1="44.6097" y1="12.3977" x2="44.6097" y2="80.5032" gradientUnits="userSpaceOnUse">
<stop/>
<stop offset="1" stop-color="#B4FF05"/>
</linearGradient>
<linearGradient id="paint1_linear_238_820" x1="44.6086" y1="-9.76311" x2="44.6086" y2="59.5729" gradientUnits="userSpaceOnUse">
<stop stop-color="#B4FF05"/>
<stop offset="1"/>
</linearGradient>
<linearGradient id="paint2_linear_238_820" x1="73.3391" y1="12.3981" x2="73.3391" y2="80.5035" gradientUnits="userSpaceOnUse">
<stop stop-color="#B4FF05"/>
<stop offset="1"/>
</linearGradient>
<linearGradient id="paint3_linear_238_820" x1="15.8678" y1="33.2939" x2="15.8678" y2="60.2055" gradientUnits="userSpaceOnUse">
<stop stop-color="#B4FF05"/>
<stop offset="1"/>
</linearGradient>
<linearGradient id="paint4_linear_238_820" x1="58.984" y1="30.8269" x2="58.984" y2="31.2692" gradientUnits="userSpaceOnUse">
<stop offset="1.00136e-07"/>
<stop offset="1" stop-color="#B4FF05"/>
</linearGradient>
<linearGradient id="paint5_linear_238_820" x1="63.0607" y1="5.11716" x2="63.0607" y2="89.6526" gradientUnits="userSpaceOnUse">
<stop offset="1.00136e-07"/>
<stop offset="1" stop-color="#B4FF05"/>
</linearGradient>
<linearGradient id="paint6_linear_238_820" x1="36.048" y1="9.23583" x2="36.048" y2="61.2732" gradientUnits="userSpaceOnUse">
<stop stop-color="#B4FF05"/>
<stop offset="1"/>
</linearGradient>
<linearGradient id="paint7_linear_238_820" x1="48.9119" y1="-2.8657" x2="48.9119" y2="49.5651" gradientUnits="userSpaceOnUse">
<stop/>
<stop offset="1" stop-color="#B4FF05"/>
</linearGradient>
</defs>
</svg>
