<svg width="90" height="63" viewBox="0 0 90 63" fill="none" xmlns="http://www.w3.org/2000/svg">
<path d="M84.1719 1.026C83.4667 0.810211 82.7452 0.700684 82.027 0.700684C79.6738 0.700684 77.5504 1.84397 76.2011 3.83784L76.1871 3.85835L76.174 3.87932L63.466 24.3419L59.0583 31.4393L44.9083 54.2262C44.8803 54.2714 44.8057 54.3912 44.6123 54.3912C44.418 54.3912 44.3462 54.2756 44.3154 54.2262L30.1439 31.4249L25.7344 24.3298L13.0739 3.95949L13.0105 3.86115C11.6458 1.8449 9.5224 0.701615 7.16871 0.701149C6.45095 0.701149 5.72993 0.810211 5.02569 1.026C1.97243 1.96142 0 4.62924 0 7.82279V55.4972C0 58.6903 1.97243 61.3581 5.02523 62.2936C5.73087 62.5093 6.45189 62.6189 7.16871 62.6189C9.52146 62.6189 11.6454 61.4756 12.9951 59.4817L13.0114 59.4575L13.0268 59.4323L24.2658 41.0144L19.8562 33.9207L7.46234 54.2309V9.06861L37.9768 58.1651C39.4123 60.4749 41.8928 61.854 44.6114 61.854C45.2919 61.8536 45.957 61.7673 46.5945 61.6019C47.8697 61.271 49.0344 60.6231 49.988 59.7148C50.4648 59.2603 50.889 58.7411 51.2474 58.1636L81.7325 9.06861V54.2328L69.3917 34.0004L64.9817 41.0946L76.106 59.3363L76.1824 59.4561C77.5494 61.4761 79.6729 62.6193 82.0261 62.6193C82.7434 62.6193 83.4644 62.5098 84.1696 62.2945C87.2228 61.3577 89.1948 58.6898 89.1948 55.4977V7.82232C89.1957 4.63017 87.2238 1.96235 84.1719 1.026Z" fill="url(#paint0_linear_238_857)"/>
<path d="M78.5529 2.53174C77.8934 2.53174 77.2842 2.73961 76.7813 3.0901C76.5758 3.32453 76.3805 3.57249 76.2006 3.83768L76.1866 3.85819L76.1736 3.87917L63.4656 24.3418L59.0579 31.4392L44.9078 54.2261C44.8799 54.2713 44.8053 54.3911 44.6119 54.3911C44.4175 54.3911 44.3457 54.2755 44.315 54.2261L30.1435 31.4247L25.7339 24.3296L13.0734 3.95933L13.0101 3.86099C12.866 3.64799 12.709 3.45037 12.5486 3.25695C12.0099 2.80719 11.3205 2.53174 10.5636 2.53174C8.84892 2.53174 7.45862 3.92204 7.45862 5.63674L7.46281 9.07265L37.9759 58.1649C39.4114 60.4748 41.8918 61.8539 44.6105 61.8539C45.2909 61.8534 45.956 61.7672 46.5936 61.6017C47.8688 61.2708 49.0335 60.623 49.9871 59.7146C50.4639 59.2602 50.888 58.741 51.2465 58.1635L81.732 9.06659L81.6556 5.6372C81.6579 3.92204 80.2676 2.53174 78.5529 2.53174Z" fill="url(#paint1_linear_238_857)"/>
<path d="M81.6579 57.7204L81.5973 54.0091L69.3927 33.9995L64.9827 41.0936L76.107 59.3354L76.1834 59.4552C76.4001 59.7754 76.6416 60.0648 76.8942 60.3398C77.3747 60.6446 77.9414 60.825 78.5525 60.825C80.2676 60.8254 81.6579 59.4351 81.6579 57.7204Z" fill="url(#paint2_linear_238_857)"/>
<path d="M10.5651 60.8256C11.2908 60.8256 11.9535 60.5707 12.482 60.153C12.6629 59.941 12.8358 59.7182 12.9961 59.4819L13.0124 59.4577L13.0278 59.4325L24.2668 41.0146L19.8572 33.9209L7.54724 54.0936L7.46008 57.7206C7.46008 59.4353 8.84992 60.8256 10.5651 60.8256Z" fill="url(#paint3_linear_238_857)"/>
<path d="M59.0582 31.4403L59.0568 31.4385L58.8788 31.7293L59.0582 31.4403Z" fill="url(#paint4_linear_238_857)"/>
<path d="M81.6578 5.63674C81.6578 3.92204 80.2675 2.53174 78.5528 2.53174C77.8933 2.53174 77.2842 2.73961 76.7813 3.0901C76.5757 3.32453 76.3804 3.57249 76.2005 3.83768L76.1866 3.85819L76.1735 3.87917L44.9082 54.2261C44.8802 54.2713 44.8057 54.3911 44.6123 54.3911C44.4734 54.3911 44.3983 54.3319 44.355 54.2801L45.1781 55.779C47.0247 58.9968 50.6074 59.0514 51.8514 57.0188L52.6264 55.9426L81.7333 9.06659L81.6578 5.63674Z" fill="url(#paint5_linear_238_857)"/>
<path d="M37.3714 5.46037L35.8702 7.71944L27.1835 21.8439L31.6475 29.0149L44.2978 8.26475C44.3281 8.21488 44.3998 8.09789 44.5951 8.09789C44.7914 8.09789 44.8655 8.21954 44.8934 8.26521L44.0442 6.70014C42.1981 3.48188 38.6154 3.42782 37.3714 5.46037Z" fill="url(#paint6_linear_238_857)"/>
<path d="M61.928 21.8147L51.2604 4.37367C49.8296 2.03304 47.3379 0.635742 44.5946 0.635742C41.8513 0.635742 39.3601 2.03304 37.9297 4.37367L35.8701 7.7201L37.3714 5.46103C38.6153 3.42847 42.1985 3.48254 44.0446 6.70079L44.8039 8.11439L45.1772 8.74453L46.6439 11.136L57.5133 28.941L61.928 21.8147Z" fill="url(#paint7_linear_238_857)"/>
<defs>
<linearGradient id="paint0_linear_238_857" x1="44.5983" y1="13.0303" x2="44.5983" y2="81.1185" gradientUnits="userSpaceOnUse">
<stop stop-color="white"/>
<stop offset="1" stop-color="#B4FF05"/>
</linearGradient>
<linearGradient id="paint1_linear_238_857" x1="44.597" y1="-9.12636" x2="44.597" y2="60.192" gradientUnits="userSpaceOnUse">
<stop stop-color="#B4FF05"/>
<stop offset="1" stop-color="white"/>
</linearGradient>
<linearGradient id="paint2_linear_238_857" x1="73.3203" y1="13.0303" x2="73.3203" y2="81.1185" gradientUnits="userSpaceOnUse">
<stop stop-color="#B4FF05"/>
<stop offset="1" stop-color="white"/>
</linearGradient>
<linearGradient id="paint3_linear_238_857" x1="15.8634" y1="33.9209" x2="15.8634" y2="60.8256" gradientUnits="userSpaceOnUse">
<stop stop-color="#B4FF05"/>
<stop offset="1" stop-color="white"/>
</linearGradient>
<linearGradient id="paint4_linear_238_857" x1="58.9685" y1="31.4552" x2="58.9685" y2="31.8952" gradientUnits="userSpaceOnUse">
<stop offset="1.00136e-07" stop-color="white"/>
<stop offset="1" stop-color="#B4FF05"/>
</linearGradient>
<linearGradient id="paint5_linear_238_857" x1="63.0447" y1="5.75013" x2="63.0447" y2="90.2641" gradientUnits="userSpaceOnUse">
<stop offset="1.00136e-07" stop-color="white"/>
<stop offset="1" stop-color="#B4FF05"/>
</linearGradient>
<linearGradient id="paint6_linear_238_857" x1="36.0385" y1="9.86814" x2="36.0385" y2="61.8923" gradientUnits="userSpaceOnUse">
<stop stop-color="#B4FF05"/>
<stop offset="1" stop-color="white"/>
</linearGradient>
<linearGradient id="paint7_linear_238_857" x1="48.899" y1="-2.22923" x2="48.899" y2="50.1883" gradientUnits="userSpaceOnUse">
<stop stop-color="white"/>
<stop offset="1" stop-color="#B4FF05"/>
</linearGradient>
</defs>
</svg>
