<svg width="1110" height="500" viewBox="0 0 1110 500" fill="none" xmlns="http://www.w3.org/2000/svg">
<rect width="1110" height="500" fill="#161616"/>
<mask id="mask0_2001_428" style="mask-type:alpha" maskUnits="userSpaceOnUse" x="0" y="0" width="1110" height="500">
<rect width="1110" height="500" fill="#161616"/>
</mask>
<g mask="url(#mask0_2001_428)">
<g filter="url(#filter0_f_2001_428)">
<path fill-rule="evenodd" clip-rule="evenodd" d="M555 790.277V62.0005C406.495 235.464 99.3322 354.585 -255.5 354.585C-590.763 354.585 -883.469 248.241 -1040 90.1941V1125.01C-874.9 914.364 -403.84 762.345 151.5 762.345C292.659 762.345 428.372 772.167 555 790.277Z" fill="url(#paint0_linear_2001_428)"/>
</g>
<g filter="url(#filter1_f_2001_428)">
<path fill-rule="evenodd" clip-rule="evenodd" d="M555 790.277V62.0005C703.505 235.464 1010.67 354.585 1365.5 354.585C1700.76 354.585 1993.47 248.241 2150 90.1941V1125.01C1984.9 914.364 1513.84 762.345 958.5 762.345C817.341 762.345 681.628 772.167 555 790.277Z" fill="url(#paint1_linear_2001_428)"/>
</g>
</g>
<path d="M117.018 258.4C106.218 258.4 96.1513 256.667 86.818 253.2C77.618 249.6 69.618 244.533 62.818 238C56.018 231.467 50.6846 223.8 46.818 215C43.0846 206.2 41.218 196.533 41.218 186C41.218 175.467 43.0846 165.8 46.818 157C50.6846 148.2 56.018 140.533 62.818 134C69.7513 127.467 77.818 122.467 87.018 119C96.218 115.4 106.285 113.6 117.218 113.6C129.351 113.6 140.285 115.733 150.018 120C159.885 124.133 168.151 130.267 174.818 138.4L154.018 157.6C149.218 152.133 143.885 148.067 138.018 145.4C132.151 142.6 125.751 141.2 118.818 141.2C112.285 141.2 106.285 142.267 100.818 144.4C95.3513 146.533 90.618 149.6 86.618 153.6C82.618 157.6 79.4846 162.333 77.218 167.8C75.0846 173.267 74.018 179.333 74.018 186C74.018 192.667 75.0846 198.733 77.218 204.2C79.4846 209.667 82.618 214.4 86.618 218.4C90.618 222.4 95.3513 225.467 100.818 227.6C106.285 229.733 112.285 230.8 118.818 230.8C125.751 230.8 132.151 229.467 138.018 226.8C143.885 224 149.218 219.8 154.018 214.2L174.818 233.4C168.151 241.533 159.885 247.733 150.018 252C140.285 256.267 129.285 258.4 117.018 258.4ZM196.698 256V116L257.298 116C269.831 116 280.631 118.067 289.698 122.2C298.764 126.2 305.764 132 310.698 139.6C315.631 147.2 318.098 156.267 318.098 166.8C318.098 177.2 315.631 186.2 310.698 193.8C305.764 201.267 298.764 207 289.698 211C280.631 215 269.831 217 257.298 217H214.698L229.098 202.8V256H196.698ZM285.698 256L250.698 205.2H285.298L320.698 256H285.698ZM229.098 206.4L214.698 191.2H255.498C265.498 191.2 272.964 189.067 277.898 184.8C282.831 180.4 285.298 174.4 285.298 166.8C285.298 159.067 282.831 153.067 277.898 148.8C272.964 144.533 265.498 142.4 255.498 142.4H214.698L229.098 127V206.4ZM373.568 172.4L440.968 172.4V197.6H373.568V172.4ZM375.968 230H452.168V256H343.768V116L449.568 116V142L375.968 142V230ZM459.548 256L521.948 116H553.948L616.548 256H582.548L531.348 132.4H544.148L492.748 256H459.548ZM490.748 226L499.348 201.4H571.348L580.148 226H490.748ZM653.041 256V142.4H608.241V116H730.241V142.4H685.441V256H653.041ZM747.674 256V116H780.074V256H747.674ZM854.713 256L794.313 116H829.313L882.113 240H861.513L915.113 116H947.313L886.713 256H854.713ZM988.802 172.4H1056.2V197.6H988.802V172.4ZM991.202 230H1067.4V256H959.002V116H1064.8V142H991.202V230Z" fill="#B4FF05"/>
<defs>
<filter id="filter0_f_2001_428" x="-1080" y="22.0005" width="1675" height="1143.01" filterUnits="userSpaceOnUse" color-interpolation-filters="sRGB">
<feFlood flood-opacity="0" result="BackgroundImageFix"/>
<feBlend mode="normal" in="SourceGraphic" in2="BackgroundImageFix" result="shape"/>
<feGaussianBlur stdDeviation="20" result="effect1_foregroundBlur_2001_428"/>
</filter>
<filter id="filter1_f_2001_428" x="515" y="22.0005" width="1675" height="1143.01" filterUnits="userSpaceOnUse" color-interpolation-filters="sRGB">
<feFlood flood-opacity="0" result="BackgroundImageFix"/>
<feBlend mode="normal" in="SourceGraphic" in2="BackgroundImageFix" result="shape"/>
<feGaussianBlur stdDeviation="20" result="effect1_foregroundBlur_2001_428"/>
</filter>
<linearGradient id="paint0_linear_2001_428" x1="234.5" y1="660.843" x2="-622.502" y2="112.844" gradientUnits="userSpaceOnUse">
<stop stop-color="#CCFF02" stop-opacity="0.5"/>
<stop offset="1" stop-color="#D0F4D8" stop-opacity="0"/>
</linearGradient>
<linearGradient id="paint1_linear_2001_428" x1="875.5" y1="660.843" x2="1732.5" y2="112.844" gradientUnits="userSpaceOnUse">
<stop stop-color="#CCFF02" stop-opacity="0.5"/>
<stop offset="1" stop-color="#D0F4D8" stop-opacity="0"/>
</linearGradient>
</defs>
</svg>
