<svg width="1110" height="500" viewBox="0 0 1110 500" fill="none" xmlns="http://www.w3.org/2000/svg">
<mask id="mask0_13_31" style="mask-type:alpha" maskUnits="userSpaceOnUse" x="0" y="0" width="1110" height="500">
<rect width="1110" height="500" fill="#D4D4D4"/>
</mask>
<g mask="url(#mask0_13_31)">
<path d="M-31.9958 77.634C-40.0144 69.6154 -46.2016 60.8544 -50.5573 51.3509C-54.7151 41.8474 -56.893 32.1459 -57.091 22.2464C-57.289 12.3469 -55.5566 2.69485 -51.8938 -6.70967C-48.132 -16.0152 -42.3408 -24.5783 -34.5202 -32.3989C-26.6996 -40.2195 -18.1365 -46.0107 -8.83096 -49.7725C0.573557 -53.4353 10.2256 -55.1677 20.1251 -54.9697C30.1235 -54.6727 39.8251 -52.3958 49.2296 -48.1391C58.7331 -43.9813 67.5436 -37.8436 75.6612 -29.726C84.6698 -20.7174 91.2034 -11.0159 95.2622 -0.621476C99.519 9.77299 101.103 20.4644 100.014 31.4529L70.3155 30.265C70.8105 22.6423 69.87 15.6632 67.4941 9.32751C65.2173 2.89285 61.5049 -2.89836 56.3572 -8.04609C51.5065 -12.8968 46.2597 -16.5597 40.617 -19.0345C34.9743 -21.5094 29.1831 -22.7469 23.2434 -22.7468C17.3037 -22.7468 11.463 -21.5589 5.72129 -19.183C0.0785783 -16.7082 -5.21765 -12.9958 -10.1674 -8.0461C-15.1171 -3.09635 -18.8295 2.19988 -21.3043 7.84259C-23.6802 13.5843 -24.8681 19.425 -24.8681 25.3647C-24.8681 31.3044 -23.6307 37.0956 -21.1558 42.7383C-18.681 48.381 -15.0182 53.6278 -10.1674 58.4785C-5.01966 63.6262 0.722047 67.3881 7.05772 69.7639C13.4924 72.0408 20.5705 72.8823 28.2921 72.2883L29.4801 101.987C18.4916 103.076 7.75068 101.541 -2.74278 97.3835C-13.1372 93.3247 -22.8882 86.7416 -31.9958 77.634ZM28.9453 135.011L132.89 31.0666L177.883 76.0598C187.189 85.3653 193.673 94.9183 197.336 104.719C201.097 114.42 201.988 123.924 200.009 133.229C198.029 142.535 193.128 151.098 185.308 158.919C177.586 166.64 169.073 171.491 159.767 173.471C150.561 175.352 141.107 174.411 131.405 170.649C121.704 166.888 112.2 160.354 102.894 151.048L71.2656 119.42L92.5 119.568L53.001 159.067L28.9453 135.011ZM95.0244 201.09L106.755 137.387L132.444 163.076L121.011 227.077L95.0244 201.09ZM89.8272 122.241L90.4211 100.264L120.714 130.556C128.138 137.981 135.266 141.941 142.096 142.436C149.026 142.832 155.312 140.209 160.955 134.566C166.697 128.824 169.32 122.538 168.825 115.707C168.33 108.877 164.37 101.749 156.946 94.3243L126.653 64.0319L148.779 63.2894L89.8272 122.241ZM222.335 204.261L272.377 254.303L253.667 273.013L203.625 222.971L222.335 204.261ZM181.351 248.809L237.926 305.384L218.622 324.688L138.139 244.205L242.084 140.261L320.637 218.813L301.333 238.117L246.687 183.472L181.351 248.809ZM224.101 330.167L374.376 272.552L398.135 296.311L340.668 446.734L315.424 421.49L369.179 291.708L378.682 301.211L248.751 354.817L224.101 330.167ZM269.54 331.058L294.19 319.179L347.647 372.636L335.916 397.435L269.54 331.058ZM367.763 473.829L452.107 389.486L418.845 356.223L438.446 336.622L529.026 427.203L509.425 446.804L476.163 413.541L391.819 497.885L367.763 473.829ZM438.024 544.09L541.969 440.146L566.025 464.202L462.08 568.146L438.024 544.09ZM517.497 623.563L576.597 474.774L602.583 500.76L549.72 632.027L534.425 616.732L666.286 564.463L690.194 588.37L541.256 647.322L517.497 623.563ZM679.123 661.049L729.165 711.091L710.455 729.801L660.413 679.759L679.123 661.049ZM638.139 705.597L694.715 762.172L675.411 781.477L594.928 700.994L698.872 597.049L777.425 675.601L758.121 694.905L703.476 640.26L638.139 705.597Z" fill="white"/>
</g>
</svg>
