<svg width="400" height="500" viewBox="0 0 400 500" fill="none" xmlns="http://www.w3.org/2000/svg">
<mask id="mask0_25_27" style="mask-type:alpha" maskUnits="userSpaceOnUse" x="0" y="0" width="400" height="500">
<rect width="400" height="500" fill="#D4D4D4"/>
</mask>
<g mask="url(#mask0_25_27)">
<path d="M-65.493 169.733C-70.3805 164.845 -74.1518 159.505 -76.8067 153.713C-79.341 147.92 -80.6685 142.007 -80.7891 135.973C-80.9098 129.939 -79.8539 124.056 -77.6213 118.323C-75.3284 112.652 -71.7985 107.432 -67.0317 102.665C-62.2648 97.8985 -57.0454 94.3686 -51.3735 92.0757C-45.6412 89.8431 -39.7581 88.7872 -33.7241 88.9078C-27.6298 89.0889 -21.7165 90.4767 -15.9842 93.0713C-10.1916 95.6056 -4.82137 99.3466 0.126496 104.294C5.61742 109.785 9.59984 115.699 12.0738 122.034C14.6684 128.37 15.6338 134.887 14.9701 141.584L-3.13185 140.86C-2.83015 136.214 -3.40338 131.96 -4.85154 128.099C-6.23935 124.176 -8.50209 120.647 -11.6398 117.509C-14.5964 114.552 -17.7944 112.32 -21.2338 110.811C-24.6732 109.303 -28.203 108.548 -31.8234 108.548C-35.4438 108.548 -39.0039 109.273 -42.5036 110.721C-45.9429 112.229 -49.1711 114.492 -52.1881 117.509C-55.2051 120.526 -57.4678 123.754 -58.9763 127.193C-60.4245 130.693 -61.1486 134.253 -61.1486 137.874C-61.1486 141.494 -60.3943 145.024 -58.8858 148.463C-57.3773 151.903 -55.1447 155.101 -52.1881 158.057C-49.0504 161.195 -45.5507 163.488 -41.689 164.936C-37.7669 166.324 -33.4526 166.837 -28.7461 166.475L-28.022 184.577C-34.7197 185.24 -41.2666 184.305 -47.6626 181.771C-53.9983 179.297 -59.9418 175.284 -65.493 169.733ZM-28.348 204.706L35.0088 141.349L62.4332 168.773C68.1051 174.445 72.0574 180.268 74.29 186.242C76.5829 192.155 77.1259 197.948 75.9192 203.62C74.7124 209.292 71.7255 214.511 66.9587 219.278C62.2522 223.984 57.063 226.941 51.391 228.148C45.7794 229.294 40.017 228.721 34.1037 226.428C28.1904 224.135 22.3978 220.153 16.7258 214.481L-2.55273 195.202L10.3901 195.293L-13.6854 219.368L-28.348 204.706ZM11.9288 244.983L19.0791 206.154L34.7372 221.812L27.768 260.822L11.9288 244.983ZM8.76097 196.922L9.12301 183.527L27.587 201.99C32.1125 206.516 36.4569 208.93 40.6204 209.231C44.8442 209.473 48.6757 207.874 52.1151 204.434C55.6148 200.935 57.2138 197.103 56.9121 192.94C56.6104 188.776 54.1968 184.432 49.6713 179.906L31.2074 161.442L44.6933 160.99L8.76097 196.922ZM89.5274 246.915L120.029 277.417L108.625 288.821L78.1232 258.319L89.5274 246.915ZM64.5467 274.068L99.0309 308.552L87.2647 320.318L38.2084 271.262L101.565 207.905L149.445 255.785L137.679 267.551L104.371 234.244L64.5467 274.068ZM90.6043 323.658L182.2 288.54L196.682 303.022L161.654 394.708L146.268 379.322L179.032 300.216L184.825 306.009L105.629 338.683L90.6043 323.658ZM118.3 324.201L133.325 316.96L165.908 349.544L158.758 364.659L118.3 324.201ZM178.17 411.223L229.579 359.814L209.305 339.54L221.252 327.592L276.463 382.803L264.516 394.751L244.242 374.476L192.832 425.886L178.17 411.223ZM220.996 454.049L284.352 390.693L299.015 405.355L235.658 468.712L220.996 454.049ZM269.436 502.49L305.459 411.799L321.298 427.638L289.076 507.649L279.754 498.326L360.127 466.467L374.699 481.039L283.917 516.971L269.436 502.49ZM367.951 525.338L398.452 555.84L387.048 567.244L356.546 536.743L367.951 525.338ZM342.97 552.491L377.454 586.975L365.688 598.742L316.632 549.685L379.988 486.329L427.868 534.208L416.102 545.975L382.794 512.667L342.97 552.491Z" fill="white"/>
</g>
</svg>
