<svg width="400" height="600" viewBox="0 0 400 600" fill="none" xmlns="http://www.w3.org/2000/svg">
<rect width="400" height="600" fill="#161616"/>
<mask id="mask0_2001_142" style="mask-type:alpha" maskUnits="userSpaceOnUse" x="0" y="0" width="400" height="600">
<rect width="400" height="600" fill="#B4FF05"/>
</mask>
<g mask="url(#mask0_2001_142)">
<g filter="url(#filter0_f_2001_142)">
<path fill-rule="evenodd" clip-rule="evenodd" d="M-1249.78 315.543C-1269.88 359.236 -1279.3 404.477 -1276.57 450.418C-1259.81 732.231 -792.202 933.686 -232.138 900.379C327.926 867.072 768.361 611.617 751.602 329.804C745.033 219.341 669.194 121.225 545.67 44.7535C442.441 269.077 57.4839 452.576 -411.277 480.453C-751.812 500.705 -1058.17 434.165 -1249.78 315.543Z" fill="url(#paint0_linear_2001_142)"/>
</g>
<path d="M-153.846 289.402C-161.796 284.812 -168.469 279.258 -173.867 272.74C-179.109 266.18 -182.845 259.05 -185.074 251.351C-187.303 243.651 -187.97 235.741 -187.076 227.62C-186.085 219.555 -183.35 211.646 -178.874 203.892C-174.397 196.138 -168.915 189.816 -162.426 184.925C-155.84 180.09 -148.656 176.713 -140.874 174.794C-132.993 172.931 -124.93 172.679 -116.684 174.037C-108.382 175.297 -100.207 178.25 -92.1585 182.897C-83.2269 188.054 -76.0853 194.271 -70.7338 201.548C-65.2273 208.784 -61.7487 216.812 -60.2979 225.633L-83.7693 230.926C-84.9793 224.862 -87.177 219.602 -90.3622 215.146C-93.4908 210.591 -97.607 206.841 -102.711 203.894C-107.52 201.117 -112.39 199.353 -117.321 198.6C-122.252 197.847 -127.039 198.092 -131.684 199.337C-136.328 200.581 -140.647 202.734 -144.638 205.795C-148.532 208.912 -151.896 212.925 -154.729 217.832C-157.562 222.74 -159.355 227.659 -160.108 232.59C-160.763 237.577 -160.468 242.393 -159.224 247.038C-157.979 251.682 -155.798 255.951 -152.681 259.845C-149.563 263.739 -145.6 267.074 -140.791 269.851C-135.687 272.797 -130.409 274.536 -124.957 275.066C-119.449 275.498 -113.738 274.673 -107.824 272.591L-100.673 295.564C-109.037 298.718 -117.757 299.769 -126.834 298.716C-135.812 297.72 -144.816 294.616 -153.846 289.402ZM-94.1718 321.5L-34.6718 218.443L9.93715 244.198C19.1632 249.524 26.235 255.636 31.1525 262.532C36.1267 269.329 38.8145 276.574 39.216 284.265C39.6176 291.956 37.58 299.679 33.1033 307.433C28.6833 315.088 23.0426 320.665 16.181 324.163C9.37618 327.563 1.78666 328.808 -6.58751 327.899C-14.9617 326.99 -23.7618 323.873 -32.9879 318.546L-64.3466 300.441L-47.7115 296.108L-70.3215 335.27L-94.1718 321.5ZM-28.657 359.325L-32.8313 307.055L-7.36145 321.76L-2.89275 374.2L-28.657 359.325ZM-49.2415 298.758L-53.3816 281.449L-23.3479 298.789C-15.9867 303.039 -9.58362 304.642 -4.13875 303.598C1.36278 302.456 5.72855 299.087 8.95855 293.493C12.2452 287.8 12.9794 282.335 11.1612 277.097C9.34305 271.86 4.75334 267.116 -2.60788 262.866L-32.6416 245.526L-15.4965 240.31L-49.2415 298.758ZM71.5562 335.13L121.171 363.775L110.461 382.325L60.8462 353.68L71.5562 335.13ZM48.8429 378.55L104.935 410.935L93.8854 430.075L14.0898 384.005L73.5898 280.948L151.471 325.913L140.421 345.052L86.2429 313.772L48.8429 378.55ZM99.3177 433.211L204.752 356.674L228.308 370.274L214.889 499.936L189.861 485.486L204.701 372.741L214.124 378.181L123.757 447.321L99.3177 433.211ZM135.035 424.387L151.82 409.934L204.821 440.534L200.844 462.382L135.035 424.387ZM241.753 515.446L290.033 431.822L257.054 412.782L268.274 393.349L358.081 445.199L346.861 464.632L313.883 445.592L265.603 529.216L241.753 515.446ZM311.414 555.665L370.914 452.608L394.764 466.378L335.264 569.435L311.414 555.665ZM390.208 601.156L405.246 472.429L431.01 487.304L417.177 601.023L402.013 592.268L494.169 523.769L517.873 537.454L413.764 614.756L390.208 601.156ZM524.444 596.604L574.058 625.249L563.348 643.8L513.734 615.155L524.444 596.604ZM501.73 640.025L557.823 672.41L546.773 691.549L466.977 645.479L526.477 542.422L604.359 587.387L593.309 606.526L539.13 575.246L501.73 640.025Z" fill="white"/>
</g>
<defs>
<filter id="filter0_f_2001_142" x="-1327.03" y="-5.24646" width="2129.1" height="959.226" filterUnits="userSpaceOnUse" color-interpolation-filters="sRGB">
<feFlood flood-opacity="0" result="BackgroundImageFix"/>
<feBlend mode="normal" in="SourceGraphic" in2="BackgroundImageFix" result="shape"/>
<feGaussianBlur stdDeviation="25" result="effect1_foregroundBlur_2001_142"/>
</filter>
<linearGradient id="paint0_linear_2001_142" x1="537.544" y1="251.249" x2="-826.416" y2="505.782" gradientUnits="userSpaceOnUse">
<stop stop-color="#B4FF05"/>
<stop offset="1" stop-color="#B4FF05" stop-opacity="0"/>
</linearGradient>
</defs>
</svg>
