<svg width="1110" height="500" viewBox="0 0 1110 500" fill="none" xmlns="http://www.w3.org/2000/svg">
<rect width="1110" height="500" fill="#161616"/>
<mask id="mask0_2001_140" style="mask-type:alpha" maskUnits="userSpaceOnUse" x="0" y="0" width="1110" height="500">
<rect width="1110" height="500" fill="#D4D4D4"/>
</mask>
<g mask="url(#mask0_2001_140)">
<g filter="url(#filter0_f_2001_140)">
<path fill-rule="evenodd" clip-rule="evenodd" d="M-378.967 443.654C-387.08 491.061 -384.468 537.199 -369.939 580.868C-280.812 848.74 223.002 922.305 755.362 745.178C1287.72 568.05 1647.03 207.307 1557.91 -60.566C1522.97 -165.565 1424.32 -240.709 1285.21 -282.605C1243.56 -39.2072 919.215 237.674 473.642 385.925C149.952 493.623 -163.184 508.642 -378.967 443.654Z" fill="url(#paint0_linear_2001_140)"/>
</g>
<path d="M488.32 9.76481C481.829 3.27357 476.82 -3.81871 473.294 -11.512C469.928 -19.2054 468.165 -27.059 468.005 -35.0728C467.844 -43.0867 469.247 -50.9002 472.212 -58.5134C475.257 -66.0465 479.945 -72.9785 486.276 -79.3094C492.607 -85.6404 499.539 -90.3285 507.072 -93.3738C514.686 -96.3389 522.499 -97.7414 530.513 -97.5811C538.607 -97.3407 546.461 -95.4975 554.074 -92.0515C561.767 -88.6857 568.899 -83.7171 575.471 -77.1457C582.763 -69.8531 588.053 -61.9995 591.338 -53.5849C594.784 -45.1703 596.066 -36.5153 595.185 -27.6199L571.143 -28.5816C571.544 -34.7523 570.783 -40.4021 568.859 -45.5309C567.016 -50.74 564.011 -55.4281 559.844 -59.5953C555.917 -63.5221 551.67 -66.4872 547.102 -68.4907C542.534 -70.4942 537.846 -71.4959 533.037 -71.4959C528.229 -71.4959 523.501 -70.5342 518.853 -68.6109C514.285 -66.6074 509.997 -63.6022 505.99 -59.5953C501.984 -55.5884 498.978 -51.3009 496.975 -46.733C495.052 -42.085 494.09 -37.3568 494.09 -32.5485C494.09 -27.7401 495.092 -23.052 497.095 -18.4841C499.099 -13.9162 502.064 -9.66884 505.99 -5.74204C510.158 -1.57482 514.806 1.47045 519.935 3.39378C525.144 5.23697 530.874 5.91815 537.124 5.43732L538.086 29.4789C529.191 30.3605 520.496 29.1183 512.001 25.7525C503.586 22.4668 495.693 17.1376 488.32 9.76481ZM537.653 56.2131L621.799 -27.9327L658.222 8.49041C665.755 16.0235 671.004 23.7568 673.969 31.6906C677.014 39.5442 677.736 47.2375 676.133 54.7706C674.53 62.3036 670.563 69.2356 664.232 75.5666C657.981 81.8174 651.09 85.7442 643.557 87.347C636.104 88.8696 628.45 88.1083 620.597 85.063C612.743 82.0177 605.05 76.7286 597.517 69.1955L571.912 43.5912L589.102 43.7114L557.127 75.6868L537.653 56.2131ZM591.146 109.706L600.642 58.1364L621.438 78.9324L612.182 130.742L591.146 109.706ZM586.938 45.8751L587.419 28.0843L611.942 52.6068C617.952 58.6172 623.722 61.8228 629.252 62.2235C634.861 62.544 639.95 60.4203 644.518 55.8524C649.166 51.2044 651.29 46.1156 650.889 40.586C650.489 35.0564 647.283 29.2864 641.273 23.276L616.75 -1.24645L634.661 -1.84749L586.938 45.8751ZM694.206 112.272L734.717 152.782L719.57 167.929L679.06 127.419L694.206 112.272ZM661.029 148.335L706.828 194.134L691.201 209.761L626.048 144.608L710.194 60.4626L773.784 124.053L758.157 139.68L713.921 95.4432L661.029 148.335ZM695.637 214.197L817.287 167.556L836.521 186.789L790 308.56L769.565 288.125L813.08 183.063L820.773 190.756L715.591 234.151L695.637 214.197ZM732.42 214.918L752.375 205.301L795.65 248.576L786.153 268.651L732.42 214.918ZM811.934 330.494L880.213 262.216L853.286 235.289L869.153 219.422L942.48 292.749L926.613 308.616L899.686 281.69L831.408 349.968L811.934 330.494ZM868.812 387.372L952.958 303.227L972.432 322.7L888.286 406.846L868.812 387.372ZM933.147 451.707L980.99 331.259L1002.03 352.295L959.233 458.559L946.851 446.178L1053.6 403.864L1072.95 423.218L952.381 470.941L933.147 451.707ZM1063.99 482.053L1104.5 522.563L1089.35 537.71L1048.84 497.199L1063.99 482.053ZM1030.81 518.116L1076.61 563.915L1060.98 579.542L995.829 514.389L1079.98 430.244L1143.57 493.834L1127.94 509.461L1083.7 465.224L1030.81 518.116Z" fill="white"/>
</g>
<defs>
<filter id="filter0_f_2001_140" x="-433.508" y="-332.605" width="2054.98" height="1224.29" filterUnits="userSpaceOnUse" color-interpolation-filters="sRGB">
<feFlood flood-opacity="0" result="BackgroundImageFix"/>
<feBlend mode="normal" in="SourceGraphic" in2="BackgroundImageFix" result="shape"/>
<feGaussianBlur stdDeviation="25" result="effect1_foregroundBlur_2001_140"/>
</filter>
<linearGradient id="paint0_linear_2001_140" x1="1330.81" y1="-81.0417" x2="79.2048" y2="517.837" gradientUnits="userSpaceOnUse">
<stop stop-color="#B4FF05"/>
<stop offset="1" stop-color="#B4FF05" stop-opacity="0"/>
</linearGradient>
</defs>
</svg>
