<svg width="1110" height="500" viewBox="0 0 1110 500" fill="none" xmlns="http://www.w3.org/2000/svg">
<rect width="1110" height="500" fill="#D4D4D4"/>
<mask id="mask0_2001_499" style="mask-type:alpha" maskUnits="userSpaceOnUse" x="0" y="0" width="1110" height="500">
<rect width="1110" height="500" fill="#D4D4D4"/>
</mask>
<g mask="url(#mask0_2001_499)">
<path d="M503.004 -4.36597C494.986 -12.3846 488.799 -21.1456 484.443 -30.6491C480.285 -40.1526 478.107 -49.8541 477.909 -59.7536C477.711 -69.6531 479.444 -79.3051 483.106 -88.7097C486.868 -98.0152 492.659 -106.578 500.48 -114.399C508.301 -122.219 516.864 -128.011 526.169 -131.772C535.574 -135.435 545.226 -137.168 555.125 -136.97C565.124 -136.673 574.825 -134.396 584.23 -130.139C593.733 -125.981 602.544 -119.844 610.661 -111.726C619.67 -102.717 626.204 -93.0159 630.262 -82.6215C634.519 -72.227 636.103 -61.5356 635.014 -50.5471L605.316 -51.735C605.811 -59.3577 604.87 -66.3368 602.494 -72.6725C600.217 -79.1072 596.505 -84.8984 591.357 -90.0461C586.507 -94.8968 581.26 -98.5597 575.617 -101.035C569.974 -103.509 564.183 -104.747 558.244 -104.747C552.304 -104.747 546.463 -103.559 540.721 -101.183C535.079 -98.7082 529.783 -94.9958 524.833 -90.0461C519.883 -85.0964 516.171 -79.8001 513.696 -74.1574C511.32 -68.4157 510.132 -62.575 510.132 -56.6353C510.132 -50.6956 511.369 -44.9044 513.844 -39.2617C516.319 -33.619 519.982 -28.3722 524.833 -23.5215C529.981 -18.3738 535.722 -14.6119 542.058 -12.2361C548.493 -9.95918 555.571 -9.11772 563.292 -9.71169L564.48 19.9868C553.492 21.0757 542.751 19.5413 532.257 15.3835C521.863 11.3247 512.112 4.74157 503.004 -4.36597ZM563.945 53.0113L667.89 -50.9334L712.883 -5.94023C722.189 3.3653 728.673 12.9183 732.336 22.7188C736.098 32.4203 736.989 41.9238 735.009 51.2294C733.029 60.5349 728.129 69.098 720.308 76.9186C712.586 84.6402 704.073 89.4909 694.767 91.4708C685.561 93.3517 676.107 92.4113 666.405 88.6495C656.704 84.8876 647.2 78.354 637.895 69.0485L606.266 37.4196L627.5 37.5681L588.001 77.067L563.945 53.0113ZM630.025 119.09L641.755 55.3872L667.445 81.0763L656.011 145.077L630.025 119.09ZM624.827 40.2409L625.421 18.264L655.714 48.5565C663.138 55.9811 670.266 59.9409 677.097 60.4359C684.026 60.8319 690.313 58.2085 695.955 52.5658C701.697 46.8241 704.32 40.5379 703.825 33.7073C703.33 26.8766 699.371 19.749 691.946 12.3243L661.653 -17.9681L683.779 -18.7106L624.827 40.2409ZM757.335 122.261L807.377 172.303L788.667 191.013L738.625 140.971L757.335 122.261ZM716.351 166.809L772.926 223.384L753.622 242.688L673.14 162.205L777.084 58.2607L855.637 136.813L836.333 156.117L781.688 101.472L716.351 166.809ZM759.102 248.167L909.376 190.552L933.135 214.311L875.668 364.734L850.424 339.49L904.179 209.708L913.682 219.211L783.751 272.817L759.102 248.167ZM804.54 249.058L829.19 237.179L882.647 290.636L870.916 315.435L804.54 249.058ZM902.763 391.829L987.107 307.486L953.845 274.223L973.446 254.622L1064.03 345.203L1044.43 364.804L1011.16 331.541L926.819 415.885L902.763 391.829ZM973.025 462.09L1076.97 358.146L1101.03 382.202L997.08 486.146L973.025 462.09ZM1052.5 541.563L1111.6 392.774L1137.58 418.76L1084.72 550.027L1069.43 534.732L1201.29 482.463L1225.19 506.37L1076.26 565.322L1052.5 541.563ZM1214.12 579.049L1264.16 629.091L1245.45 647.801L1195.41 597.759L1214.12 579.049ZM1173.14 623.597L1229.71 680.172L1210.41 699.477L1129.93 618.994L1233.87 515.049L1312.42 593.601L1293.12 612.905L1238.48 558.26L1173.14 623.597Z" fill="white"/>
</g>
</svg>
