<svg width="40" height="40" viewBox="0 0 40 40" fill="none" xmlns="http://www.w3.org/2000/svg">
<path d="M20.0455 0H19.9545C8.93392 0 0 8.93392 0 19.9545V20.0455C0 31.0661 8.93392 40 19.9545 40H20.0455C31.0661 40 40 31.0661 40 20.0455V19.9545C40 8.93392 31.0661 0 20.0455 0Z" fill="#161616"/>
<path d="M26.1916 8.13721H13.8145C10.395 8.13721 7.61328 10.919 7.61328 14.3384V25.6616C7.61328 29.081 10.395 31.8628 13.8145 31.8628H26.1916C29.611 31.8628 32.3927 29.081 32.3927 25.6616V14.3384C32.3927 10.919 29.611 8.13721 26.1916 8.13721ZM9.80086 14.3384C9.80086 12.1256 11.6016 10.3248 13.8145 10.3248H26.1916C28.4044 10.3248 30.2052 12.1256 30.2052 14.3384V25.6616C30.2052 27.8744 28.4044 29.6752 26.1916 29.6752H13.8145C11.6016 29.6752 9.80086 27.8744 9.80086 25.6616V14.3384Z" fill="white"/>
<path d="M19.9986 25.7672C23.1784 25.7672 25.7667 23.1803 25.7667 19.9991C25.7667 16.8179 23.1798 14.231 19.9986 14.231C16.8174 14.231 14.2305 16.8179 14.2305 19.9991C14.2305 23.1803 16.8174 25.7672 19.9986 25.7672ZM19.9986 16.4199C21.9732 16.4199 23.5792 18.0259 23.5792 20.0005C23.5792 21.9751 21.9732 23.5811 19.9986 23.5811C18.024 23.5811 16.418 21.9751 16.418 20.0005C16.418 18.0259 18.024 16.4199 19.9986 16.4199Z" fill="white"/>
<path d="M26.3041 15.1625C27.1604 15.1625 27.8583 14.466 27.8583 13.6083C27.8583 12.7507 27.1618 12.0542 26.3041 12.0542C25.4465 12.0542 24.75 12.7507 24.75 13.6083C24.75 14.466 25.4465 15.1625 26.3041 15.1625Z" fill="white"/>
</svg>
