<svg width="40" height="40" viewBox="0 0 40 40" fill="none" xmlns="http://www.w3.org/2000/svg">
<path d="M39.9972 20.0007C39.9972 30.1019 32.5098 38.4529 22.7831 39.808C21.8736 39.9341 20.9431 40 19.9986 40C18.9083 40 17.8377 39.9131 16.7951 39.745C7.27298 38.2118 0 29.9548 0 20.0007C0 8.95491 8.95459 0 20 0C31.0454 0 40 8.95491 40 20.0007H39.9972Z" fill="#161616"/>
<path d="M8.11605 8.8208L17.3397 21.1531L8.05859 31.18H10.148L18.2744 22.4017L24.8397 31.18H31.9487L22.2066 18.1541L30.8459 8.8208H28.7565L21.2733 16.9054L15.2265 8.8208H8.11744H8.11605ZM11.1878 10.3595H14.4529L28.8742 29.6413H25.609L11.1878 10.3595Z" fill="white"/>
</svg>
